*******************************************************************************
              Sloppy the Psychotic (2012) DVDRip - RadioResearch
*******************************************************************************

-------------------------------------------------------------------------------
                              General Information
-------------------------------------------------------------------------------
Type.................: Movie



Video Format.........: AVI
Video Bitrate........: 1500
Resolution...........: 640 x 372
Color................: 8 bit
FPS..................: 29.970
Source...............: DVD 1.720:1
Original Format......: NTSC
Genre................: Horror
IMDb Rating..........: 5.0
Movie Information....: http://www.imdb.com/title/tt2210985/

-------------------------------------------------------------------------------
                               Post Information
-------------------------------------------------------------------------------
Posted by............: RadioResearch
Posted on............: 5/6/2013

-------------------------------------------------------------------------------
                                 Release Notes
-------------------------------------------------------------------------------
SEEDBOX SUPPORTED!!

Meet Mike, A man whose only goal in life was to bring joy to children... As 
"Sloppy the Clown". After a cruel twist of fate finds him without his beloved 
job he goes into business for himself. After a bout of bad luck Mike spirals 
completely out of control. Witness a good man go bad, then totally mad in... 
Sloppy the Psychotic.

Enjoy!
RadioResearch

General
Complete name                            : G:Sloppy the Psychotic (2012) DVDRip 
- RadioResearchSLOPPY_DVD-{RadioResearch}.avi
Format                                   : AVI
Format/Info                              : Audio Video Interleave
File size                                : 807 MiB
Duration                                 : 1h 15mn
Overall bit rate                         : 1 500 Kbps
Movie name                               : SLOPPY_DVD_MENU_2.Title1.DVDRip
Writing application                      : Lavf53.32.100
Original source form/Name                : SLOPPY_DVD_MENU_2

Video
ID                                       : 0
Format                                   : MPEG-4 Visual
Format profile                           : Advanced Simple@L5
Format settings, BVOP                    : 2
Format settings, QPel                    : No
Format settings, GMC                     : No warppoints
Format settings, Matrix                  : Default (H.263)
Muxing mode                              : Packed bitstream
Codec ID                                 : XVID
Codec ID/Hint                            : XviD
Duration                                 : 1h 15mn
Bit rate                                 : 1 424 Kbps
Width                                    : 640 pixels
Height                                   : 372 pixels
Display aspect ratio                     : 1.720
Frame rate                               : 29.970 fps
Color space                              : YUV
Chroma subsampling                       : 4:2:0
Bit depth                                : 8 bits
Scan type                                : Progressive
Compression mode                         : Lossy
Bits/(Pixel*Frame)                       : 0.200
Stream size                              : 766 MiB (95%)
Writing library                          : XviD 64

Audio
ID                                       : 1
Format                                   : AC-3
Format/Info                              : Audio Coding 3
Mode extension                           : CM (complete main)
Format settings, Endianness              : Big
Codec ID                                 : 2000
Duration                                 : 1h 15mn
Bit rate mode                            : Constant
Bit rate                                 : 64.0 Kbps
Channel(s)                               : 2 channels
Channel positions                        : Front: L R
Sampling rate                            : 48.0 KHz
Bit depth                                : 16 bits
Compression mode                         : Lossy
Stream size                              : 34.3 MiB (4%)
Alignment                                : Aligned on interleaves
Interleave, duration                     : 32 ms (0.96 video frame)

AVI FILE MD5 HASH  e7449bee3376f80ff66fde3a579ceb64 



-------------------------------------------------------------------------------
Generated with Cool NFO Creator - http://fly.to/coolbeans
-------------------------------------------------------------------------------
